<?xml version="1.0" encoding="utf-8"?>
<!-- Generator: Adobe Illustrator 20.1.0, SVG Export Plug-In . SVG Version: 6.00 Build 0)  -->
<svg version="1.1" id="Layer_1" xmlns="http://www.w3.org/2000/svg" xmlns:xlink="http://www.w3.org/1999/xlink" x="0px" y="0px"
	 viewBox="0 0 32 32" style="enable-background:new 0 0 32 32;" xml:space="preserve">
<style type="text/css">
	.st0{fill:#FFFFFF;}
	.st1{fill:#009CDB;}
</style>
<g>
	<g>
		<circle class="st0" cx="16" cy="16" r="15.5"/>
		<path class="st1" d="M16,32C7.2,32,0,24.8,0,16C0,7.2,7.2,0,16,0c8.8,0,16,7.2,16,16C32,24.8,24.8,32,16,32z M16,1.1
			C7.8,1.1,1.1,7.8,1.1,16S7.8,30.9,16,30.9S30.9,24.2,30.9,16S24.2,1.1,16,1.1z"/>
	</g>
	<g>
		<g>
			<path class="st1" d="M9.1,21.3H8V10.6h3.2c0.5,0,1,0.1,1.5,0.2c0.4,0.1,0.8,0.3,1.2,0.5c0.3,0.2,0.6,0.5,0.8,0.9
				c0.2,0.4,0.3,0.8,0.3,1.3c0,0.4-0.1,0.8-0.2,1.1c-0.1,0.3-0.3,0.6-0.6,0.8c-0.2,0.2-0.5,0.4-0.9,0.6c-0.3,0.1-0.7,0.2-1.1,0.3
				l3.1,5.1h-1.3l-3-5H9.1V21.3z M9.1,15.4H11c0.9,0,1.6-0.2,2-0.5s0.7-0.8,0.7-1.4c0-0.4-0.1-0.7-0.2-0.9c-0.1-0.2-0.3-0.4-0.5-0.6
				c-0.2-0.2-0.5-0.3-0.8-0.3c-0.3-0.1-0.7-0.1-1.1-0.1H9.1V15.4z"/>
		</g>
		<g>
			<path class="st1" d="M24,16c0,0.9-0.1,1.7-0.3,2.3c-0.2,0.7-0.4,1.3-0.7,1.8c-0.3,0.5-0.7,0.9-1.2,1.1c-0.5,0.3-1,0.4-1.6,0.4
				c-0.6,0-1.1-0.1-1.6-0.4c-0.5-0.3-0.9-0.6-1.2-1.1c-0.3-0.5-0.6-1.1-0.7-1.8c-0.2-0.7-0.3-1.5-0.3-2.3c0-0.9,0.1-1.7,0.3-2.3
				c0.2-0.7,0.4-1.3,0.7-1.8c0.3-0.5,0.7-0.9,1.2-1.1c0.5-0.3,1-0.4,1.6-0.4c0.6,0,1.1,0.1,1.6,0.4c0.5,0.3,0.9,0.6,1.2,1.1
				c0.3,0.5,0.6,1.1,0.7,1.8S24,15.1,24,16z M22.2,16c0-0.4,0-0.8-0.1-1.3c0-0.5-0.1-0.9-0.3-1.3c-0.1-0.4-0.3-0.8-0.6-1.1
				c-0.3-0.3-0.6-0.4-1-0.4c-0.4,0-0.7,0.1-1,0.4c-0.3,0.3-0.4,0.6-0.6,1.1c-0.1,0.4-0.2,0.9-0.3,1.3c-0.1,0.5-0.1,0.9-0.1,1.3
				c0,0.4,0,0.8,0.1,1.3c0.1,0.5,0.1,0.9,0.3,1.3c0.1,0.4,0.3,0.8,0.6,1.1c0.3,0.3,0.6,0.4,1,0.4c0.4,0,0.7-0.1,1-0.4
				c0.3-0.3,0.4-0.6,0.6-1.1c0.1-0.4,0.2-0.9,0.3-1.3C22.2,16.8,22.2,16.3,22.2,16z"/>
		</g>
	</g>
</g>
</svg>
